<mxfile host="Electron" modified="2023-04-19T15:48:15.745Z" agent="Mozilla/5.0 (Windows NT 10.0; Win64; x64) AppleWebKit/537.36 (KHTML, like Gecko) draw.io/21.1.2 Chrome/106.0.5249.199 Electron/21.4.3 Safari/537.36" etag="GAZr-qe0YuoJJzqb1G8S" version="21.1.2" type="device">
  <diagram name="第 1 页" id="WeksNQTn7rmUZLTNm6jE">
    <mxGraphModel dx="1421" dy="1224" grid="1" gridSize="10" guides="1" tooltips="1" connect="1" arrows="1" fold="1" page="0" pageScale="1" pageWidth="1600" pageHeight="900" background="none" math="0" shadow="0">
      <root>
        <mxCell id="0" />
        <mxCell id="1" parent="0" />
        <mxCell id="3vAu_ZUaitDxesohSRle-2" value="" style="rounded=1;whiteSpace=wrap;html=1;absoluteArcSize=1;arcSize=14;strokeWidth=2;gradientColor=none;glass=0;sketch=1;curveFitting=1;jiggle=2;shadow=1;" vertex="1" parent="1">
          <mxGeometry x="330" y="340" width="610" height="70" as="geometry" />
        </mxCell>
        <mxCell id="3vAu_ZUaitDxesohSRle-3" value="端口转发" style="html=1;shadow=0;dashed=0;shape=mxgraph.bootstrap.rrect;rSize=5;strokeColor=none;strokeWidth=1;fillColor=#6C767D;fontColor=#FFFFFF;whiteSpace=wrap;align=left;verticalAlign=middle;spacingLeft=10;fontStyle=1;fontSize=18;" vertex="1" parent="1">
          <mxGeometry x="350" y="355" width="90" height="40" as="geometry" />
        </mxCell>
        <mxCell id="3vAu_ZUaitDxesohSRle-5" value="http代理" style="html=1;shadow=0;dashed=0;shape=mxgraph.bootstrap.rrect;rSize=5;strokeColor=none;strokeWidth=1;fillColor=#0085FC;fontColor=#FFFFFF;whiteSpace=wrap;align=center;verticalAlign=middle;spacingLeft=0;fontStyle=0;fontSize=16;spacing=5;" vertex="1" parent="1">
          <mxGeometry x="460" y="355" width="80" height="40" as="geometry" />
        </mxCell>
        <mxCell id="3vAu_ZUaitDxesohSRle-6" value="socks5代理" style="html=1;shadow=0;dashed=0;shape=mxgraph.bootstrap.rrect;rSize=5;strokeColor=none;strokeWidth=1;fillColor=#33A64C;fontColor=#FFFFFF;whiteSpace=wrap;align=center;verticalAlign=middle;spacingLeft=0;fontStyle=0;fontSize=16;spacing=5;" vertex="1" parent="1">
          <mxGeometry x="560" y="355" width="90" height="40" as="geometry" />
        </mxCell>
        <mxCell id="3vAu_ZUaitDxesohSRle-8" value="虚拟网卡组网" style="html=1;shadow=0;dashed=0;shape=mxgraph.bootstrap.rrect;rSize=5;strokeColor=none;strokeWidth=1;fillColor=#DB2843;fontColor=#FFFFFF;whiteSpace=wrap;align=center;verticalAlign=middle;spacingLeft=0;fontStyle=0;fontSize=16;spacing=5;" vertex="1" parent="1">
          <mxGeometry x="670" y="355" width="110" height="40" as="geometry" />
        </mxCell>
        <mxCell id="3vAu_ZUaitDxesohSRle-9" value="其它代理协议..." style="html=1;shadow=0;dashed=0;shape=mxgraph.bootstrap.rrect;rSize=5;strokeColor=#6C767D;strokeWidth=1;fillColor=none;fontColor=#6C767D;whiteSpace=wrap;align=center;verticalAlign=middle;spacingLeft=0;fontStyle=0;fontSize=16;spacing=5;" vertex="1" parent="1">
          <mxGeometry x="796" y="356" width="120" height="40" as="geometry" />
        </mxCell>
        <mxCell id="3vAu_ZUaitDxesohSRle-10" value="访问端" style="image;html=1;image=img/lib/clip_art/people/Suit_Man_Blue_128x128.png;sketch=1;curveFitting=1;jiggle=2;imageBorder=default;imageBackground=default;fontSize=16;" vertex="1" parent="1">
          <mxGeometry x="200" y="66" width="80" height="80" as="geometry" />
        </mxCell>
        <mxCell id="3vAu_ZUaitDxesohSRle-11" value="A端、Socket监听" style="image;html=1;image=img/lib/clip_art/networking/Email_128x128.png;sketch=1;curveFitting=1;jiggle=2;imageBorder=default;imageBackground=default;fontSize=16;" vertex="1" parent="1">
          <mxGeometry x="420" y="66" width="80" height="80" as="geometry" />
        </mxCell>
        <mxCell id="3vAu_ZUaitDxesohSRle-12" value="" style="endArrow=classic;startArrow=classic;html=1;rounded=0;entryX=0;entryY=0.5;entryDx=0;entryDy=0;exitX=1;exitY=0.5;exitDx=0;exitDy=0;fillColor=#d5e8d4;strokeColor=#82b366;sketch=1;curveFitting=1;jiggle=2;shadow=1;" edge="1" parent="1" source="3vAu_ZUaitDxesohSRle-10" target="3vAu_ZUaitDxesohSRle-11">
          <mxGeometry width="50" height="50" relative="1" as="geometry">
            <mxPoint x="280" y="120" as="sourcePoint" />
            <mxPoint x="330" y="70" as="targetPoint" />
          </mxGeometry>
        </mxCell>
        <mxCell id="3vAu_ZUaitDxesohSRle-13" value="B端、Socket连接" style="image;html=1;image=img/lib/clip_art/networking/Email_128x128.png;imageBackground=default;imageBorder=default;sketch=1;curveFitting=1;jiggle=2;fontSize=16;" vertex="1" parent="1">
          <mxGeometry x="780" y="66" width="80" height="80" as="geometry" />
        </mxCell>
        <mxCell id="3vAu_ZUaitDxesohSRle-14" value="" style="endArrow=classic;startArrow=classic;html=1;rounded=0;entryX=0;entryY=0.5;entryDx=0;entryDy=0;sketch=1;curveFitting=1;jiggle=2;shadow=1;fillColor=#d5e8d4;strokeColor=#82b366;" edge="1" parent="1" target="3vAu_ZUaitDxesohSRle-13">
          <mxGeometry width="50" height="50" relative="1" as="geometry">
            <mxPoint x="500" y="106" as="sourcePoint" />
            <mxPoint x="550" y="60" as="targetPoint" />
          </mxGeometry>
        </mxCell>
        <mxCell id="3vAu_ZUaitDxesohSRle-21" value="P2P/服务器中继/节点中继" style="edgeLabel;align=center;verticalAlign=middle;resizable=0;points=[];fontSize=16;labelBorderColor=default;html=1;fontFamily=Comic Sans MS;" vertex="1" connectable="0" parent="3vAu_ZUaitDxesohSRle-14">
          <mxGeometry x="-0.1" relative="1" as="geometry">
            <mxPoint as="offset" />
          </mxGeometry>
        </mxCell>
        <mxCell id="3vAu_ZUaitDxesohSRle-15" value="内网服务" style="image;html=1;image=img/lib/clip_art/computers/Network_128x128.png;imageBorder=default;imageBackground=default;sketch=1;curveFitting=1;jiggle=2;fontSize=16;" vertex="1" parent="1">
          <mxGeometry x="1060" y="160" width="80" height="80" as="geometry" />
        </mxCell>
        <mxCell id="3vAu_ZUaitDxesohSRle-16" value="外网服务" style="image;html=1;image=img/lib/clip_art/general/Earth_globe_128x128.png;fontSize=16;imageBackground=default;imageBorder=default;sketch=1;curveFitting=1;jiggle=2;" vertex="1" parent="1">
          <mxGeometry x="1060" y="-10" width="80" height="80" as="geometry" />
        </mxCell>
        <mxCell id="3vAu_ZUaitDxesohSRle-17" value="" style="endArrow=classic;startArrow=classic;html=1;rounded=0;fillColor=#d5e8d4;strokeColor=#82b366;shadow=1;sketch=1;curveFitting=1;jiggle=2;" edge="1" parent="1" target="3vAu_ZUaitDxesohSRle-16">
          <mxGeometry width="50" height="50" relative="1" as="geometry">
            <mxPoint x="860" y="100" as="sourcePoint" />
            <mxPoint x="910" y="50" as="targetPoint" />
          </mxGeometry>
        </mxCell>
        <mxCell id="3vAu_ZUaitDxesohSRle-18" value="" style="endArrow=classic;startArrow=classic;html=1;rounded=0;exitX=1.025;exitY=0.613;exitDx=0;exitDy=0;exitPerimeter=0;entryX=0;entryY=0.5;entryDx=0;entryDy=0;fillColor=#d5e8d4;strokeColor=#82b366;shadow=1;sketch=1;curveFitting=1;jiggle=2;" edge="1" parent="1" source="3vAu_ZUaitDxesohSRle-13" target="3vAu_ZUaitDxesohSRle-15">
          <mxGeometry width="50" height="50" relative="1" as="geometry">
            <mxPoint x="920" y="170" as="sourcePoint" />
            <mxPoint x="970" y="120" as="targetPoint" />
          </mxGeometry>
        </mxCell>
        <mxCell id="3vAu_ZUaitDxesohSRle-20" value="具体协议功能，实现IProxyPlugin接口&lt;br&gt;只需处理协议，无需关心数据流转过程" style="text;html=1;strokeColor=none;fillColor=none;align=center;verticalAlign=middle;whiteSpace=wrap;rounded=0;fontSize=16;" vertex="1" parent="1">
          <mxGeometry x="492.5" y="430" width="285" height="30" as="geometry" />
        </mxCell>
        <mxCell id="3vAu_ZUaitDxesohSRle-22" value="" style="endArrow=classic;startArrow=classic;html=1;rounded=0;exitX=0.27;exitY=-0.057;exitDx=0;exitDy=0;exitPerimeter=0;fillColor=#e1d5e7;strokeColor=#9673a6;sketch=1;curveFitting=1;jiggle=2;shadow=1;" edge="1" parent="1" source="3vAu_ZUaitDxesohSRle-2" target="3vAu_ZUaitDxesohSRle-11">
          <mxGeometry width="50" height="50" relative="1" as="geometry">
            <mxPoint x="490" y="300" as="sourcePoint" />
            <mxPoint x="540" y="250" as="targetPoint" />
          </mxGeometry>
        </mxCell>
        <mxCell id="3vAu_ZUaitDxesohSRle-23" value="协议栈请求预处理，重新封包统一格式&lt;br style=&quot;font-size: 16px;&quot;&gt;返回值预处理&lt;br style=&quot;font-size: 16px;&quot;&gt;例如socks5，连接成功返回数据&lt;br style=&quot;font-size: 16px;&quot;&gt;socks5，udp中继返回数据&lt;br style=&quot;font-size: 16px;&quot;&gt;http代理连接成功返回数据，都需要封包" style="edgeLabel;html=1;align=center;verticalAlign=middle;resizable=0;points=[];fontSize=16;labelBorderColor=default;" vertex="1" connectable="0" parent="3vAu_ZUaitDxesohSRle-22">
          <mxGeometry x="-0.1979" y="-2" relative="1" as="geometry">
            <mxPoint x="-1" as="offset" />
          </mxGeometry>
        </mxCell>
        <mxCell id="3vAu_ZUaitDxesohSRle-24" value="" style="endArrow=classic;startArrow=classic;html=1;rounded=1;fillColor=#e1d5e7;strokeColor=#9673a6;sketch=1;curveFitting=1;jiggle=2;shadow=1;" edge="1" parent="1" target="3vAu_ZUaitDxesohSRle-13">
          <mxGeometry width="50" height="50" relative="1" as="geometry">
            <mxPoint x="770" y="340" as="sourcePoint" />
            <mxPoint x="820" y="290" as="targetPoint" />
          </mxGeometry>
        </mxCell>
        <mxCell id="3vAu_ZUaitDxesohSRle-26" value="后处理，比如权限验证&lt;br style=&quot;font-size: 16px;&quot;&gt;账号密码验证什么的" style="edgeLabel;html=1;align=center;verticalAlign=middle;resizable=0;points=[];fontSize=16;labelBorderColor=default;" vertex="1" connectable="0" parent="3vAu_ZUaitDxesohSRle-24">
          <mxGeometry x="0.2667" y="-2" relative="1" as="geometry">
            <mxPoint as="offset" />
          </mxGeometry>
        </mxCell>
        <mxCell id="3vAu_ZUaitDxesohSRle-27" value="代理模块大致流程" style="text;html=1;strokeColor=none;fillColor=none;align=center;verticalAlign=middle;whiteSpace=wrap;rounded=0;fontSize=20;fontFamily=Comic Sans MS;" vertex="1" parent="1">
          <mxGeometry x="550" y="-70" width="170" height="30" as="geometry" />
        </mxCell>
      </root>
    </mxGraphModel>
  </diagram>
</mxfile>
